{"title":"The Hunger Games Catching Fire (2013) NL Subs BR2DVD-NLU002","uid":9499454,"size":4688183761,"categoryP":"video","categoryS":"movies_dvdr","magnet":"?xt=urn:btih:c5f8e41c8b0ced696a44c27de272ee7fb51181b2&amp;dn=The+Hunger+Games+Catching+Fire+%282013%29+NL+Subs+BR2DVD-NLU002&amp;tr=udp%3A%2F%2Ftracker.openbittorrent.com%3A80&amp;tr=udp%3A%2F%2Fopen.demonii.com%3A1337&amp;tr=udp%3A%2F%2Ftracker.coppersurfer.tk%3A6969&amp;tr=udp%3A%2F%2Fexodus.desync.com%3A6969","seeders":10,"leechers":0,"uploader":"NLUPPER002","files":-1,"time":1390183884,"description":"The Hunger Games Catching Fire (2013) NL Subs BR2DVD-NLU002\n.\n[IMG]http://imagizer.imageshack.us/v2/800x600q90/593/14cu.jpg[/IMG]\n.\nPG-13  -  146 min  -  Action | Adventure | Sci-Fi  -  22 November 2013 (USA) \n\n. &lt;a href=&quot;\nhttp://www.imdb.com/title/tt1951264/&quot; rel=&quot;nofollow&quot; target=&quot;_NEW&quot;&gt;\nhttp://www.imdb.com/title/tt1951264/&lt;/a&gt;\n. &lt;a href=&quot;\nhttp://www.moviemeter.nl/film/88814&quot; rel=&quot;nofollow&quot; target=&quot;_NEW&quot;&gt;\nhttp://www.moviemeter.nl/film/88814&lt;/a&gt;\n.\nPLOT\n.\nKatniss Everdeen and Peeta Mellark become targets of the Capitol,\nafter their victory in the 74th Hunger Games sparks a rebellion in the Districts of Panem. \n.\nSource: The Hunger Games Catching Fire 2013 IMAX EDITION 720p BluRay \nFormat: DVD5\nVideo: NTSC HCenc 2passes\nAudio: English DD5.1 448kbps\nSubtitles: Dutch, English, English SDH. White and Yellow\nMenu: Yes Custom by NLU002\nCharpter Selection: Yes HQ Motion 15 charpters\nNL Vertaler: Onbekend, zien er prima uit. THANKS\nControle en bewerking: Goffini, resynch BluRay NLU002\nProgram used: TMPGEnc Authoring Work 5\nNotes: the IMAX scenes are Full screen, great, enjoy it\n.\nEnjoy another High Quality Encode from NLU002\n.\nInfo from 1ste VOB\n.\nOverall bit rate                         : 4 100 Kbps\nWriting library                          : encoded by TMPGEnc Authoring Works 5 Version. 5.1.3.57\n\nVideo\nID                                       : 224 (0xE0)\nFormat                                   : MPEG Video\nFormat version                           : Version 2\nFormat profile                           : Main@Main\nFormat settings, BVOP                    : Yes\nFormat settings, Matrix                  : Custom\nFormat settings, GOP                     : Variable\nDuration                                 : 34mn 54s\nBit rate mode                            : Variable\nBit rate                                 : 3 571 Kbps\nMaximum bit rate                         : 7 240 Kbps\nWidth                                    : 720 pixels\nHeight                                   : 480 pixels\nDisplay aspect ratio                     : 16:9\nFrame rate                               : 23.976 fps\nStandard                                 : NTSC\nColor space                              : YUV\nChroma subsampling                       : 4:2:0\nBit depth                                : 8 bits\nScan type                                : Progressive\nScan order                               : 2:3 Pulldown\nCompression mode                         : Lossy\nBits/(Pixel*Frame)                       : 0.431\nTime code of first frame                 : 00:00:00:00\nTime code source                         : Group of pictures header\nStream size                              : 892 MiB (87%)\nSource encoded stream size               : encoded by TMPGEnc Authoring Works 5 Version. 5.1.3.57\nWriting library                          : TMPGEnc Authoring Works 5 Version. 5.1.3.57\nColor primaries                          : BT.601 NTSC\nTransfer characteristics                 : BT.601\nMatrix coefficients                      : BT.601\n\nAudio\nID                                       : 189 (0xBD)-128 (0x80)\nFormat                                   : AC-3\nFormat/Info                              : Audio Coding 3\nMode extension                           : CM (complete main)\nFormat settings, Endianness              : Big\nMuxing mode                              : DVD-Video\nDuration                                 : 34mn 54s\nBit rate mode                            : Constant\nBit rate                                 : 448 Kbps\nChannel(s)                               : 6 channels\nChannel positions                        : Front: L C R, Side: L R, LFE\nSampling rate                            : 48.0 KHz\nBit depth                                : 16 bits\nCompression mode                         : Lossy\nStream size                              : 112 MiB (11%)\n","torrent":{"xt":"urn:btih:c5f8e41c8b0ced696a44c27de272ee7fb51181b2","amp;dn":"The+Hunger+Games+Catching+Fire+%282013%29+NL+Subs+BR2DVD-NLU002","amp;tr":["udp%3A%2F%2Ftracker.openbittorrent.com%3A80","udp%3A%2F%2Fopen.demonii.com%3A1337","udp%3A%2F%2Ftracker.coppersurfer.tk%3A6969","udp%3A%2F%2Fexodus.desync.com%3A6969"],"infoHash":"c5f8e41c8b0ced696a44c27de272ee7fb51181b2","infoHashBuffer":{"type":"Buffer","data":[197,248,228,28,139,12,237,105,106,68,194,125,226,114,238,127,181,17,129,178]},"announce":[],"urlList":[]}}